<svg width="450" height="100" viewBox="0 0 450 100" xmlns="http://www.w3.org/2000/svg">
  <!-- Background with original gradient -->
  <defs>
    <linearGradient id="mainGrad" x1="0%" y1="0%" x2="100%" y2="100%">
      <stop offset="0%" style="stop-color:#1e3a8a;stop-opacity:1" />
      <stop offset="100%" style="stop-color:#3b82f6;stop-opacity:1" />
    </linearGradient>
  </defs>

  <rect width="450" height="100" fill="url(#mainGrad)" rx="12"/>

  <!-- Left flower icon - directly from logo-rect -->
  <g transform="translate(22, 15) scale(0.065)">
    <path d="M511.485038 511.485038m-511.485038 0a511.485038 511.485038 0 1 0 1022.970077 0 511.485038 511.485038 0 1 0-1022.970077 0Z" fill="#3AD0F9"/>
    <path d="M442.754236 213.385164c35.164596 29.570229 102.297008 133.465627 72.726779 168.630224-29.570229 35.164596-143.855167-10.38954-179.019763-39.959769-35.164596-29.570229-40.758964-82.317123-11.188735-117.481719 29.570229-35.963792 82.317123-40.758964 117.481719-11.188736z" fill="#FFFFFF"/>
    <path d="M447.549409 392.404928c29.570229 4.795172 55.144481 3.196781 67.931606-10.38954 12.787126-14.385517 8.791149-38.361378-2.397586-64.734825-32.76701 14.385517-56.742871 42.357355-65.53402 75.124365z" fill="#EAEAEA"/>
    <path d="M478.718028 402.794468c-50.349308 0-122.276892-32.76701-149.449534-55.144481-19.180689-15.983907-31.16862-38.361378-32.767011-62.337239-2.397586-24.775057 4.795172-48.750918 20.77908-67.931607 17.582298-21.578275 43.955745-33.566206 71.128388-33.966205 21.578275 0 42.357355 7.192758 59.140458 21.578275 34.365401 28.771033 110.288961 139.059995 74.325169 182.216545-8.791149 9.590344-23.176666 15.184712-43.15655 15.184712zM388.408951 199.798843c-23.176666 0-43.955745 10.38954-59.140457 27.971838-27.172643 32.76701-22.37747 80.718733 10.389539 107.891375 24.775057 20.77908 94.305054 51.947699 139.059995 51.9477 15.184712 0 25.574252-3.196781 31.16862-10.38954 10.38954-12.787126 5.594368-41.558159-12.787126-79.120342-18.381494-35.963792-43.955745-67.132411-59.140458-80.718733-14.385517-11.188735-31.967815-17.582298-49.550113-17.582298z" fill="#074370" opacity="0.3"/>
    <path d="M322.874931 393.204123c43.955745-12.787126 167.831028-9.590344 180.618154 34.365401 12.787126 43.955745-89.509882 113.485743-133.465627 126.272869-43.955745 12.787126-90.309077-12.787126-103.895399-56.742871-13.586321-44.754941 11.987931-91.108272 56.742872-103.895399z" fill="#FFFFFF"/>
    <path d="M502.693889 427.569524c-4.795172-15.983907-25.574252-27.172643-52.746894-33.566205-1.598391 7.991954-3.196781 15.983907-3.196782 24.775056 0 25.574252 9.590344 49.550113 24.775057 68.730802 23.176666-20.77908 36.762987-42.357355 31.168619-59.939653z" fill="#EAEAEA"/>
    <path d="M346.850792 567.428715c-39.959769 0-75.92356-27.971838-87.112296-67.931607-7.192758-23.975861-3.995977-49.550113 7.192758-71.927584 11.987931-22.37747 31.16862-38.361378 54.345286-44.754941 15.184712-4.795172 38.361378-7.192758 63.136434-7.192758 26.373447 0 113.485743 3.196781 126.272869 47.951722 8.791149 29.570229-21.578275 63.136434-47.951722 85.513905-28.771033 24.775057-66.333216 47.152527-91.108273 54.345286-7.991954 2.397586-15.983907 3.995977-24.775056 3.995977z m37.562182-175.023787c-23.176666 0-44.754941 2.397586-58.341262 6.393563-19.180689 5.594368-35.164596 19.180689-44.754941 37.562182-9.590344 18.381494-11.987931 39.160573-6.393563 59.140458 9.590344 32.76701 39.160573 55.943676 71.927584 55.943676 7.192758 0 14.385517-0.799195 20.779079-3.196781 19.180689-5.594368 54.345285-25.574252 84.71471-51.148504 31.967815-27.172643 47.152527-51.947699 42.357535-67.931607-6.393563-25.574252-59.939653-36.762987-110.288962-36.762987z" fill="#074370" opacity="0.3"/>
    <path d="M344.453206 527.468946c-28.771033 0-41.558159-19.180689-47.152527-27.172643-2.397586-3.196781-1.598391-8.791149 1.59839-11.188735 3.196781-2.397586 7.991954-1.598391 10.38954 1.598391 7.991954 11.987931 27.971838 41.558159 94.305054-2.397586 3.196781-2.397586 7.991954-0.799195 10.38954 2.397586 2.397586 3.995977 0.799195 8.791149-2.397586 11.188735-28.771033 19.180689-50.349308 25.574252-67.132411 25.574252z" fill="#074370" opacity="0.3"/>
    <path d="M645.749861 191.806889c0 46.353332-37.562183 163.835051-83.915514 163.835052S477.918833 238.160221 477.918833 191.806889s37.562183-83.915514 83.915514-83.915514c46.353332 0.799195 83.915514 37.562183 83.915514 83.915514z" fill="#FFFFFF"/>
    <path d="M790.404223 354.842745c-38.361378 25.574252-156.642293 60.738848-182.216544 23.176666-25.574252-38.361378 50.349308-135.064018 88.710686-161.437465 38.361378-25.574252 90.309077-15.983907 115.883329 22.37747 25.574252 38.361378 15.184712 90.309077-22.377471 115.883329z" fill="#FFFFFF"/>
    <path d="M763.231581 555.440784C718.47664 543.452853 615.380437 475.521247 627.368367 431.565501c11.987931-44.754941 135.863213-48.750918 179.818959-36.762987 44.754941 11.987931 70.329193 58.341262 58.341263 103.096203-11.987931 43.955745-58.341262 70.329193-102.297008 57.542067z" fill="#FFFFFF"/>
    <path d="M573.023082 644.950666c-15.983907-43.15655-23.176666-166.232638 19.979884-183.015741 43.15655-15.983907 119.879306 80.718733 135.863214 123.875283s-5.594368 91.108272-48.750918 107.891375c-43.15655 15.983907-91.108272-5.594368-107.09218-48.750917z" fill="#FFFFFF"/>
    <path d="M392.404928 595.400553C407.58964 551.444807 481.91481 453.143776 525.07136 468.328488c43.955745 15.184712 39.959769 138.260799 24.775056 182.216545s-63.136434 66.333216-106.292984 51.148504c-43.15655-15.184712-66.333216-63.136434-51.148504-106.292984z" fill="#FFFFFF"/>
    <path d="M673.721699 393.204123c-7.192758-33.566206-29.570229-61.538044-59.939653-75.92356-11.188735 23.975861-15.983907 46.353332-6.393563 60.738848 11.188735 15.184712 36.762987 18.381494 66.333216 15.184712zM609.786069 313.284586c-13.586321-6.393563-29.570229-9.590344-45.554136-9.590344-17.582298 0-33.566206 3.995977-47.951722 11.188735 13.586321 23.975861 29.570229 40.758964 46.353331 40.758964 16.783103 0 33.566206-17.582298 47.152527-42.377355zM473.123661 487.509177c19.979884 27.971838 50.349308 46.353332 84.714709 47.951723-3.995977-32.76701-14.385517-60.738848-32.76701-67.132412-14.385517-5.594368-33.566206 3.196781-51.947699 19.180689zM563.432738 535.4609c36.762987 0 70.329193-19.180689 90.309077-47.951723-21.578275-19.979884-44.754941-31.967815-61.538044-24.775056-19.180689 7.991954-28.771033 37.562183-31.168619 72.726779h2.397586z" fill="#EAEAEA"/>
    <path d="M561.834347 363.633895c-30.369424 0-52.746895-37.562183-66.333216-68.730803-15.184712-33.566206-24.775057-75.124365-24.775057-100.698616C470.726074 144.654362 511.485038 103.895398 561.834347 103.895398c50.349308 0 91.907468 40.758964 91.907468 90.309078 0 43.15655-35.963792 169.429419-91.907468 169.429419z m0-243.754589c-41.558159 0-75.92356 33.566206-75.92356 74.32517 0 19.979884 7.991954 59.140458 23.975861 95.104249 15.983907 37.562183 35.164596 59.140458 51.947699 59.140457 16.783103 0 35.164596-21.578275 51.947699-59.140457 15.983907-35.963792 23.975861-75.124365 23.975861-95.104249 0-40.758964-34.365401-74.32517-75.92356-74.32517z" fill="#074370" opacity="0.3"/>
    <path d="M653.741815 402.794468c-25.574252 0-43.955745-7.192758-52.746895-20.77908-16.783103-25.574252 1.598391-65.534021 19.979885-95.104249 19.979884-31.967815 48.750918-64.734825 69.529997-79.120342 15.184712-10.38954 32.72701-15.983907 50.349308-15.983908 29.570229 0 57.542067 15.184712 74.32517 40.758964 13.586321 20.77908 18.381494 44.754941 14.385517 69.529998-4.795172 23.975861-17.582298 45.554136-37.562183 59.140457-28.771033 19.180689-93.505859 41.558159-138.260799 41.55816zM740.85411 207.790797c-15.184712 0-29.570229 4.795172-41.558159 13.586321-16.783103 11.188735-43.955745 40.758964-64.734825 74.32517-21.578275 35.164596-29.570229 63.136434-19.979884 77.521951 7.192758 11.188735 25.574252 13.586321 39.959768 13.586321 45.554136 0 105.493789-22.37747 128.670455-39.160573 16.783103-11.188735 27.172643-28.727033 31.16862-48.750918 3.995977-19.979884 0-40.758964-11.188736-57.542066-14.385517-20.77908-37.562183-33.566206-62.337239-33.566206z" fill="#074370" opacity="0.3"/>
    <path d="M676.918481 397.999296c-25.574252 6.393563-44.754941 17.582298-49.550114 33.566205-4.795172 16.783103 7.192758 36.762987 27.172643 55.943676 15.184712-19.180689 24.775057-43.15655 24.775057-68.730802 0-7.192758-0.799195-14.385517-2.397586-20.779079z" fill="#EAEAEA"/>
    <path d="M787.207442 566.629519c-7.991954 0-16.783103-0.799195-24.775057-3.196781-24.775057-7.192758-63.136434-27.971838-92.706663-51.148504-27.172643-21.578275-57.542067-52.746895-49.550113-81.517928 10.38954-35.164596 75.124365-47.951722 131.867237-47.951723 23.176666 0 44.754941 2.397586 59.140457 6.393563 23.975861 6.393563 43.15655 21.578275 55.943676 42.357355 11.987931 20.77908 15.184712 45.554136 8.791149 68.730802-11.188735 39.160573-47.951722 66.333216-88.710686 66.333216zM752.042846 399.597686c-51.148504 0-109.489766 11.188735-116.682525 35.963792-4.795172 15.983907 11.987931 39.160573 43.955746 64.734825 31.16862 24.775057 67.132411 42.357355 87.112295 47.951723 6.393563 1.598391 13.586321 2.397586 20.77908 2.397586 34.365401 0 63.93563-22.37747 73.525974-54.345286 5.594368-19.180689 3.196781-39.160573-7.192758-56.742871-10.38954-17.582298-26.373447-29.570229-45.554136-35.164596-13.586321-3.196781-33.566206-4.795172-55.943676-4.795173z" fill="#074370" opacity="0.3"/>
    <path d="M651.344229 711.283882c-38.361378 0-72.726779-23.975861-86.313101-59.939653-9.590344-24.775057-14.385517-68.730802-12.787126-106.292985 1.598391-35.164596 9.590344-79.120342 37.562183-90.309077 3.995977-1.598391 8.791149-2.397586 13.586321-2.397586 50.349308 0 119.080111 94.305054 133.465628 132.666432 17.582298 47.951722-6.393563 101.497812-53.54609 119.879306-9.590344 3.995977-20.77908 6.393563-31.967815 6.393563z m-47.951723-242.955394c-2.397586 0-5.594368 0.799195-7.991953 1.598391-15.184712 5.594368-25.574252 33.566206-27.172643 75.124365-1.598391 39.959769 4.795172 80.718733 11.987931 99.899422 11.188735 29.570229 39.959769 49.550113 71.128388 49.550113 8.791149 0 18.381494-1.598391 27.172642-4.795172 39.160573-15.184712 59.140458-59.140458 43.955746-99.100227-15.184712-39.959769-79.919537-122.276892-119.080111-122.276892z" fill="#074370" opacity="0.3"/>
    <path d="M468.328488 711.283882c-10.38954 0-20.77908-1.598391-30.369424-4.795173-23.176666-7.991954-42.357355-23.975861-53.54609-44.75494-11.188735-21.578275-11.987931-45.554136-3.995977-67.931607C394.802514 556.239979 461.934925 463.533316 513.882625 463.533316c3.995977 0 8.791149 0.799195 12.787126 1.598391 28.771033 9.590344 38.361378 51.148504 40.964964 84.714709 2.397586 35.963792-1.598391 78.321147-10.38954 101.497813C543.452853 687.30802 508.288257 711.283882 468.328488 711.283882z m45.554137-232.565854c-39.160573 0-103.096203 81.517928-117.48172 119.879306-6.393563 18.381494-5.594368 38.361378 3.196781 55.943676s24.775057 31.16862 43.955746 37.562183c7.991954 2.397586 16.783103 3.995977 25.574252 3.995977 32.76701 0 61.538044-19.979884 72.726779-49.550114 6.393563-18.381494 11.987931-57.542067 9.590344-95.104249-3.196781-39.959769-13.586321-65.534021-29.570229-71.128388-3.196781-0.799195-5.594368-1.598391-7.991953-1.598391z" fill="#074370" opacity="0.3"/>
    <path d="M563.432738 417.97918m-75.124365 0a75.124365 75.124365 0 1 0 150.24873 0 75.124365 75.124365 0 1 0-150.24873 0Z" fill="#FBD000"/>
    <path d="M358.838722 684.910434c77.521951 80.718733 66.333216 217.381141 66.333216 217.381142s-137.461604 7.192758-215.78275-73.525975C131.867236 749.645259 143.855167 612.183655 143.855167 612.183655s137.461604-7.192758 214.983555 72.726779z" fill="#75B600"/>
    <path d="M222.176314 779.215488c-43.955745-50.349308-66.333216-111.887352-78.321147-162.23666-0.799195 25.574252-2.397586 141.457581 66.333216 212.585969 77.521951 80.718733 215.782751 73.525974 215.782751 73.525974v-3.995977c-53.54609-14.385517-142.256776-47.951722-203.79482-119.879306z" fill="#5C8E0D"/>
    <path d="M563.432738 456.340558c-35.164596 0-64.734825-23.975861-72.726779-56.742872-1.598391 5.594368-2.397586 11.987931-2.397586 18.381494 0 41.558159 33.566206 75.124365 75.124365 75.124365s75.124365-33.566206 75.124365-75.124365c0-6.393563-0.799195-12.787126-2.397586-18.381494-7.991954 32.76701-37.562183 56.742871-72.726779 56.742872z" fill="#F4B10B"/>
    <path d="M414.782398 911.082725c-31.967815 0-143.055972-5.594368-210.188383-76.722756C125.473673 751.24365 135.863213 612.982851 136.662409 606.589288c0-3.995977 3.196781-7.192758 7.192758-7.192759h8.791149c31.967815 0 143.055972 5.594368 210.188383 76.722756 78.321147 83.116319 67.931607 221.377118 67.931607 226.971486 0 3.995977-3.196781 7.192758-7.192759 7.192758 0 0.799195-3.196781 0.799195-8.791149 0.799196zM151.847121 615.380437c-0.799195 29.570229 0 139.85919 63.93563 206.991601 63.136434 67.132411 167.831028 71.927584 198.999647 71.927584h0.799196c0.799195-29.570229 0-139.85919-63.93563-206.991602-63.93563-67.132411-170.228614-71.927584-199.798843-71.927583z" fill="#074370" opacity="0.3"/>
    <path d="M563.432738 503.493085C517.079406 503.493085 479.517224 465.930902 479.517224 419.577571S517.079406 335.662056 563.432738 335.662056 647.348252 373.224239 647.348252 419.577571 609.786069 503.493085 563.432738 503.493085z m0-151.847121c-37.562183 0-67.931607 30.369424-67.931607 67.931607s30.369424 67.931607 67.931607 67.931606 67.931607-30.369424 67.931606-67.931606-30.369424-67.931607-67.931606-67.931607z" fill="#074370" opacity="0.3"/>
    <path d="M456.340558 700.894342c-3.995977-1.598391-8.791149 0.799195-10.38954 4.795172-0.799195 2.397586-16.783103 51.947699-21.578275 119.879306-3.995977 52.746895-0.799195 133.465627 29.570229 198.200452 6.393563 0.799195 11.987931-0.799195 18.381493 0-66.333216-131.068041-11.188735-311.686195-11.188735-313.284586 1.598391-3.196781-0.799195-7.991954-4.795172-9.590344z" fill="#074370" opacity="0.3"/>
    <path d="M379.617802 816.777671c-3.196781 0-6.393563-2.397586-7.991954-5.594368-39.959769-127.87126-191.806889-155.843098-193.40528-156.642293-3.995977-0.799195-7.192758-4.795172-6.393563-9.590344 0.799195-3.995977 4.795172-7.192758 9.590345-6.393563 6.393563 0.799195 163.035856 30.369424 206.192406 167.031833 1.598391 3.995977-0.799195 8.791149-5.594368 10.389539-0.799195 0.799195-1.598391 0.799195-2.397586 0.799196z" fill="#FFFFFF" opacity="0.5"/>
    <path d="M671.324113 863.131002c-17.582298 0-31.967815-14.385517-31.967815-31.967814s14.385517-31.967815 31.967815-31.967815 31.967815 14.385517 31.967815 31.967815-14.385517 31.967815-31.967815 31.967814z m0-48.750917c-9.590344 0-16.783103 7.991954-16.783103 16.783103 0 9.590344 7.991954 16.783103 16.783103 16.783102 9.590344 0 16.783103-7.991954 16.783103-16.783102 0-9.590344-7.192758-16.783103-16.783103-16.783103z" fill="#FFFFFF"/>
    <path d="M199.798843 335.662056c-17.582298 0-31.967815-14.385517-31.967815-31.967814s14.385517-31.967815 31.967815-31.967815 31.967815 14.385517 31.967815 31.967815-14.385517 31.967815-31.967815 31.967814z m0-48.750917c-9.590344 0-16.783103 7.991954-16.783103 16.783103 0 9.590344 7.991954 16.783103 16.783103 16.783102 9.590344 0 16.783103-7.991954 16.783103-16.783102 0-9.590344-7.192758-16.783103-16.783103-16.783103z" fill="#FFFFFF"/>
    <path d="M908.685139 723.271812c0-3.196781-3.196781-6.393563-7.991954-7.192758l-15.184712-2.397586c-3.995977-0.799195-8.791149-4.795172-8.791149-8.791149l-2.397586-15.184712c-0.799195-3.995977-3.995977-7.991954-7.192759-7.991954s-6.393563 3.196781-7.192758 7.991954l-2.397586 15.184712c-0.799195 3.995977-4.795172 8.791149-8.791149 8.791149l-15.184712 2.397586c-3.995977 0.799195-7.991954 3.995977-7.991954 7.192758s3.196781 6.393563 7.991954 7.192759l15.184712 2.397586c3.995977 0.799195 8.791149 4.795172 8.791149 8.791149l2.397586 15.184712c0.799195 3.995977 3.995977 7.991954 7.192758 7.991954s6.393563-3.196781 6.393563-7.991954l2.397586-16.783103c0.799195-3.995977 4.795172-7.991954 8.791149-8.791149l14.385517-0.799195c5.594368-0.799195 9.590344-3.995977 9.590345-7.192759z" fill="#FFFFFF"/>
    <path d="M183.814936 497.099522c0-3.196781-3.196781-6.393563-7.991954-7.192759l-14.385517-2.397586c-3.995977-0.799195-8.791149-4.795172-8.791149-8.791149l-3.196781-15.184712c-0.799195-3.995977-3.995977-7.991954-7.192759-7.991954s-6.393563 3.196781-7.192758 7.991954l-2.397586 15.184712c-0.799195 3.995977-4.795172 8.791149-8.791149 8.791149l-15.184712 2.397586c-3.995977 0.799195-7.991954 3.995977-7.991954 7.192759s3.196781 6.393563 7.991954 7.192758l15.184712 2.397586c3.995977 0.799195 8.791149 4.795172 8.791149 8.791149l2.397586 15.184712c0.799195 3.995977 3.995977 7.991954 7.192758 7.991954s6.393563-3.196781 6.393563-7.991954l2.397586-16.783102c0.799195-3.995977 4.795172-7.991954 8.79115-8.79115l15.983907-1.59839c4.795172-1.598391 7.991954-3.196781 7.991954-6.393563z" fill="#FFFFFF"/>
    <path d="M457.938948 103.096203c0-3.196781-3.196781-6.393563-7.991953-7.192758l-15.184712-2.397586c-3.995977-0.799195-8.791149-4.795172-8.791149-8.79115L423.573547 69.529997c-0.799195-3.995977-3.995977-7.991954-7.192758-7.991953s-6.393563 3.196781-7.192758 7.991953l-2.397586 15.184712c-0.799195 3.995977-4.795172 8.791149-8.791149 8.79115l-13.586322 2.397586c-3.995977 0.799195-7.991954 3.995977-7.991954 7.192758s3.196781 6.393563 7.991954 7.192758l15.184712 2.397587c3.995977 0.799195 8.791149 4.795172 8.791149 8.791149l2.397587 15.184712c0.799195 3.995977 3.995977 7.991954 7.192758 7.991953s6.393563-3.196781 6.393563-7.991953l2.397586-16.783103c0.799195-3.995977 4.795172-7.991954 8.791149-8.791149l14.385517-0.799196c4.795172-1.598391 7.991954-4.795172 7.991953-7.192758z" fill="#FFFFFF"/>
    <path d="M660.934573 679.316067c-51.947699 0-68.730802-43.955745-68.730802-44.754941-1.598391-3.995977 0.799195-8.791149 4.795172-10.38954 3.995977-1.598391 8.791149 0.799195 10.38954 4.795172 0.799195 1.598391 15.184712 38.361378 62.337239 33.566206 4.795172-0.799195 8.791149 2.397586 8.791149 7.192758 0.799195 4.795172-2.397586 8.791149-7.192758 9.590345h-10.38954z" fill="#074370" opacity="0.5"/>
    <path d="M424.372743 639.356298c-3.995977 0-7.991954-3.196781-7.991954-7.192758-3.995977-61.538044 47.152527-108.690571 49.550113-110.288962 3.196781-3.196781 8.791149-3.196781 11.987931 0 3.196781 3.196781 3.196781 7.991954 0 11.188736-0.799195 0.799195-47.951722 43.955745-44.754941 98.30103 0 3.995977-3.995977 7.991954-8.791149 7.991954z" fill="#074370" opacity="0.5"/>
    <path d="M788.805833 535.4609c-46.353332 0-96.70264-39.959769-99.100226-41.55816-3.196781-2.397586-3.995977-7.991954-1.598391-11.188735 2.397586-3.196781 7.991954-3.995977 11.188735-1.598391 0.799195 0.799195 61.538044 49.550113 104.694594 35.963792 3.995977-1.598391 8.791149 0.799195 9.590344 5.594368 1.598391 3.995977-0.799195 8.791149-4.795172 9.590344-5.594368 2.397586-12.787126 3.196781-19.979884 3.196782z" fill="#074370" opacity="0.5"/>
    <path d="M688.906411 366.830676c-3.995977 0-7.192758-2.397586-7.991954-6.393563-0.799195-3.995977 1.598391-8.791149 6.393563-9.590344 21.578275-3.995977 80.718733-20.77908 93.505859-43.955746 2.397586-3.995977 7.192758-5.594368 11.188735-3.196781 3.995977 2.397586 5.594368 7.192758 3.196782 11.188735-18.381494 34.365401-95.903445 50.349308-104.694594 51.947699h-1.598391z" fill="#074370" opacity="0.5"/>
    <path d="M527.468946 287.710334c-3.196781 0-5.594368-1.598391-7.192758-4.795172-14.385517-31.967815-16.783103-72.726779-16.783103-74.32517 0-4.795172 3.196781-8.791149 7.192758-8.791149s7.991954 3.196781 7.991954 7.192759c0 0 3.196781 39.959769 15.983907 68.730802 1.598391 3.995977 0 8.791149-3.995977 11.188735-0.799195 0.799195-1.598391 0.799195-3.196781 0.799195z" fill="#074370" opacity="0.5"/>
  </g>

  <!-- Main GFL text -->
  <text x="100" y="62" font-family="'Inter', -apple-system, BlinkMacSystemFont, sans-serif" font-size="46" font-weight="800" fill="#ffffff" letter-spacing="1">GFL</text>

  <!-- Vertical separator -->
  <line x1="200" y1="25" x2="200" y2="75" stroke="#ffffff" stroke-width="1" opacity="0.3"/>

  <!-- Right side text -->
  <text x="220" y="45" font-family="'Inter', -apple-system, BlinkMacSystemFont, sans-serif" font-size="14" font-weight="500" fill="#ffffff" opacity="0.9">GitHub Flow CLI</text>
  <text x="220" y="68" font-family="'Inter', -apple-system, BlinkMacSystemFont, sans-serif" font-size="12" fill="#ffffff" opacity="0.7">Automate your workflow</text>

  <!-- Decorative arrow -->
  <g transform="translate(400, 42)">
    <path d="M 0 0 L 15 8 L 0 16" fill="none" stroke="#ffffff" stroke-width="2" stroke-linecap="round" stroke-linejoin="round" opacity="0.8"/>
    <line x1="-5" y1="8" x2="15" y2="8" stroke="#ffffff" stroke-width="2" stroke-linecap="round" opacity="0.8"/>
  </g>

  <!-- Bottom accent -->
  <rect x="0" y="97" width="450" height="3" fill="#ffffff" opacity="0.2"/>
</svg>
